<svg version="1.2" xmlns="http://www.w3.org/2000/svg" viewBox="0 0 2148 1392" width="772" height="500">
	<title>vecteezy_alphabet-letters-initials-monogram-logo-bs-sb-b-and-s_19056184-ai</title>
	<style>
		.s0 { fill: #1790e2 } 
		.s1 { fill: #ffffff } 
	</style>
	<g id="_Artboards_">
	</g>
	<g id="Layer 1">
		<g id="&lt;Group&gt;">
			<path id="&lt;Path&gt;" class="s0" d="m-1030.5 2029v-259.8h-15.7v259.8z"/>
		</g>
		<g id="&lt;Group&gt;">
			<path id="&lt;Path&gt;" class="s0" d="m-774.5 2029v-259.8h-15.7v259.8z"/>
		</g>
		<g id="&lt;Group&gt;">
			<path id="&lt;Path&gt;" class="s0" d="m-728.9 2029v-259.9h-14.7c0 1.1 0 2.1 0 3q0 128.5 0 256.9z"/>
		</g>
		<g id="&lt;Group&gt;">
			<path id="&lt;Path&gt;" class="s0" d="m-991.3 2029v-259.8h-14.6v259.8z"/>
		</g>
		<g id="&lt;Group&gt;">
			<path id="&lt;Path&gt;" class="s0" d="m-953.4 2029v-259.9h-14.6v259.9z"/>
		</g>
		<g id="&lt;Group&gt;">
			<path id="&lt;Path&gt;" class="s0" d="m-895.1 2029h14.9v-259.8h-14.9c0 1.3 0 2.4 0 3.4q0 128.2 0 256.4z"/>
		</g>
		<g id="&lt;Group&gt;">
			<path id="&lt;Path&gt;" class="s0" d="m-627 2029v-259.9h-14.5v259.9z"/>
		</g>
		<g id="&lt;Group&gt;">
			<path id="&lt;Path&gt;" class="s0" d="m-810.1 2029v-259.8h-8.9v259.8z"/>
		</g>
		<g id="&lt;Group&gt;">
			<path id="&lt;Path&gt;" class="s0" d="m-796.5 2029v-259.9h-9v259.9z"/>
		</g>
		<g id="&lt;Group&gt;">
			<path id="&lt;Path&gt;" class="s0" d="m-612 2029v-259.8h-9.1v3.5q0 128.2 0 256.3z"/>
		</g>
		<g id="&lt;Group&gt;">
			<path id="&lt;Path&gt;" class="s0" d="m-675.1 2029v-259.9h-9v259.9z"/>
		</g>
		<g id="&lt;Group&gt;">
			<path id="&lt;Path&gt;" class="s0" d="m-840.5 2029v-259.8h-9.1v3.8q0 128 0 256z"/>
		</g>
		<g id="&lt;Group&gt;">
			<path id="&lt;Path&gt;" class="s0" d="m-688.9 2029c0-85.7 0-171.4 0-257.1v-2.7h-9.2v259.8z"/>
		</g>
		<g id="&lt;Group&gt;">
			<path id="&lt;Path&gt;" class="s0" d="m-756.9 2029v-259.8h-9v259.8z"/>
		</g>
		<g id="&lt;Group&gt;">
			<path id="&lt;Path&gt;" class="s0" d="m-571.5 2029v-259.8h-9v259.8z"/>
		</g>
		<g id="&lt;Group&gt;">
			<path id="&lt;Path&gt;" class="s0" d="m-926.7 2029v-259.9h-8.9v259.9z"/>
		</g>
		<g id="&lt;Group&gt;">
			<path id="&lt;Path&gt;" class="s0" d="m-659.4 2029v-259.9h-8.9v259.9z"/>
		</g>
		<g id="&lt;Group&gt;">
			<path id="&lt;Path&gt;" class="s0" d="m-1077.8 2029v-259.9h-8.8v259.9z"/>
		</g>
		<g id="&lt;Group&gt;">
			<path id="&lt;Path&gt;" class="s0" d="m-1064.4 2029v-259.9h-8.8v259.9z"/>
		</g>
		<g id="&lt;Group&gt;">
			<path id="&lt;Path&gt;" class="s0" d="m-556.7 2029v-259.8h-8.9v259.8z"/>
		</g>
		<g id="&lt;Group&gt;">
			<path id="&lt;Path&gt;" class="s0" d="m-543.4 2029v-259.9h-8.8v259.9z"/>
		</g>
		<g id="&lt;Group&gt;">
			<path id="&lt;Path&gt;" class="s0" d="m-865.4 2029v-259.8h-8.8v259.8z"/>
		</g>
		<g id="&lt;Group&gt;">
			<path id="&lt;Path&gt;" class="s0" d="m-824.9 2029v-259.9h-8.8v259.9z"/>
		</g>
		<g id="&lt;Group&gt;">
			<path id="&lt;Path&gt;" class="s0" d="m-713.9 2029v-259.9h-8.8v259.9z"/>
		</g>
		<g id="&lt;Group&gt;">
			<path id="&lt;Path&gt;" class="s0" d="m-587 2029c-0.1-85.7-0.1-171.4-0.1-257.1 0-0.9-0.1-1.8-0.1-2.7h-9v259.8z"/>
		</g>
		<g id="&lt;Group&gt;">
			<path id="&lt;Path&gt;" class="s0" d="m-1050.8 2029v-259.8h-8.9v259.8z"/>
		</g>
		<g id="&lt;Group&gt;">
			<path id="&lt;Path&gt;" class="s0" d="m-1016.8 2029v-259.8h-8.9v259.8z"/>
		</g>
		<g id="&lt;Group&gt;">
			<path id="&lt;Path&gt;" class="s0" d="m-976.4 2029v-259.9h-8.8v259.9z"/>
		</g>
		<g id="&lt;Group&gt;">
			<path id="&lt;Path&gt;" class="s0" d="m-909.5 2029c-0.1-85.6 0-171.3-0.1-256.9 0-1 0-2-0.1-3h-8.9v259.9z"/>
		</g>
		<g id="&lt;Group&gt;">
			<path id="&lt;Compound Path&gt;" fill-rule="evenodd" class="s0" d="m-527.7 2045.8h-575.4v-294.2h575.4zm-568.4-7h561.4v-280.2h-561.4z"/>
		</g>
		<path id="&lt;Compound Path&gt;" fill-rule="evenodd" class="s1" d="m1764.1 811.5l-42.8 242.8c-23.8 135.1-101.1 201.9-233.4 201.9h-770.9v-0.1c-1.8 0.1-3.7 0.1-5.5 0.1h-534.7l182.7-1036.6h236l-41.6 235.9h302.8c124.2 0 175.8 62.8 153.7 188.3l-47.1 266.9c-8.2 46.9 23.1 85 70 85h422.8c22.6 0 44.2-18.3 48.2-40.9l12-68.2c4-22.6-11.1-41-33.7-41h-275.6c-126.8 0-180.3-60-158.9-181.4l43.5-246.9c23.3-132.3 96.3-197.7 219-197.7h534.7l-45.9 260.5h-442c-22.6 0-44.1 18.3-48.1 40.9l-11.8 66.8c-4 22.6 11.1 41 33.7 41h282.4c100.9 0 168.3 81.8 150.5 182.7zm-1005.5-77.7q7.2-40.9-33.7-40.9h-212.8l-57.8 327.3h212.8c27.3 0 43.6-15 48.6-43.6z"/>
		<path id="&lt;Path&gt;" class="s1" d="m1898 219.9l-43.9 259h193.2l39.5-259z"/>
		<path id="&lt;Path&gt;" class="s1" d="m2047.2 478.5l-30.7 180.9h134.9l27.6-180.9z"/>
	</g>
</svg>